<?xml version="1.0" encoding="utf-8"?>
<!-- Generator: Adobe Illustrator 23.0.1, SVG Export Plug-In . SVG Version: 6.00 Build 0)  -->
<svg version="1.1" id="Layer_1" xmlns="http://www.w3.org/2000/svg" xmlns:xlink="http://www.w3.org/1999/xlink" x="0px" y="0px"
	 viewBox="0 0 134.66 134.66" style="enable-background:new 0 0 134.66 134.66;" xml:space="preserve">
<style type="text/css">
	.st0{fill-rule:evenodd;clip-rule:evenodd;fill:#F4F4F4;}
	.st1{fill:#FFFFFF;}
	.st2{fill:#F4F4F4;}
	.st3{opacity:0.8;fill:#F4F4F4;}
	.st4{fill:#D96F25;}
</style>
<g>
	<g>
		<g>
			<path class="st0" d="M120.48,55.86c0.01-0.06,0.02-0.14,0.04-0.26c0.16-0.87,0.07-0.17,0.16-0.21l0.49-0.08
				c0.07-0.23,0.55-0.85,0.33-1.53l-1.23-0.75c0,0-2.1-1.7-2.14-2.27c-0.03-0.47,0.08,0.2,0.07-0.4c-0.02-0.88,0.27,0.27-0.08-0.46
				c-0.17-0.37-0.41-0.47-0.71-0.63c1.07-0.61,1.23,0.63,1.61-1.34l-3.1,0.63c-0.46,0.33-0.19,0.19-0.4,0.44
				c-1.18,1.41-2.93,3.18-2.93,5.1c-0.46-0.35-0.63-0.14-1.46,0.36c-0.53,0.32-0.77,0.4-0.98,0.43c-5.73-0.46-11.84-0.82-18.25-1.09
				l-0.17-0.77c-0.51-0.97-0.13-0.3-1-1.19c-0.04-0.04-0.09-0.1-0.13-0.14l-0.97-0.92c-0.86-0.55,0.06-0.34-1.43-0.44
				c0.21,1.16-0.2,0.78,1.88,1.88h-0.8v1.34c0.31,0,0.42,0.05,0.45,0.16c-2.37-0.09-4.78-0.16-7.22-0.22
				c-0.32-1.37-0.86-1.3-2.08-1.24c-2.31,0.11-1.58,0.51-1.88,1.03c-0.43-0.75-1.18-0.39-1.72,0.09c-2.96-0.04-5.96-0.07-9-0.07
				c-5.34,0-10.57,0.07-15.65,0.2c0-0.03,0-0.05,0.01-0.08c0.06-1.42-0.2-2.97-1.29-4.14c-1.08-1.16-0.97-0.8-1.02-2.45
				c1.45,0.44,0.04-0.05,2.14-1.07c-0.24-1.44-0.37-0.99-0.8-1.88c0.47,0.9,0.98,1.15,2.14,1.34c-0.04-0.55,0.05-0.26-0.05-0.62
				l0.32-0.45c-0.08,0.71-0.5,1.6-0.25,2.32c0.04,0.12,0.47,1.08,0.5,1.12c0.62,0.94,0.03,0.42,1.09,0.85c0-2.55-0.18-1.36-0.8-2.95
				l1.61,1.88c0.05,0.01,0.14-0.09,0.15-0.04c0.01,0.02,0.41-0.29,0.84,0.11c0.37,0.35,0.11,0.13,0.34,0.43l0.54,0.75
				c0.3,0.53,0.02,0.38,0.27,1.16c0.68,0.29,1.03,0.39,1.88,0.54l0.27-1.88c-1.3-0.01-0.74-0.01-1.5-0.32l-0.51-0.39
				c-0.75-1.16-0.16-1.1-1.48-1.98c0.05-0.35,0.09-0.1,0.14-0.16c0.03-0.04,0.14-0.21,0.17-0.26l0.23-0.39
				c-0.43-0.29-0.33-0.21-0.73-0.6l-0.26-0.27c-0.6-0.71-0.73-1.69-1.43-2.34l3.04,1.53c1.45,1,0.17-0.5,0.98,0.34
				c0.62-0.69,0.39-0.94,0.43-1.02c0.09-0.18,0.19-0.22,0.21-0.24l0.29-1.02c0.17,0.58,0.36,1.7,0.4,2.28
				c0.96-0.37,1.09,0.42,0.54-1.07h0.54c0.33,1.31,0.5,1.36,1.34,1.61c-0.03-1.49-0.62-3.42-1.88-4.02l1.1,0.42
				c0.06,0.03,0.16,0.08,0.24,0.11c-0.07-1.03-0.4-1.77-1.07-2.14c0.35,0.16,0.58,0.46,0.75,0.52c0.76,0.26-0.08,0.05,1.13,0.02
				c-0.17,0.26-0.07,3.35,2.32,3.72c1.09,0.17,1.34,0.15,1.7-0.5c0.64,1.16,0.21,1.3,1.46,2.08c1.24,0.77,1.17,0.34,2.83,0.34
				c-0.08-0.53-0.12-1.01-0.18-1.22c-0.15-0.58-0.29-0.74-0.5-1.25c-1.31-3.14-2.28-2.3-3.88-6.38c0.5,0.96-0.6-0.37,0.26,0.35
				c0.31,0.26,0.23,0.19,0.54,0.3l1.01,0.24c0.04,0.01,0.13,0.03,0.2,0.05c0.12-1.04-0.07-1.15-0.74-1.69l-2.62-1.28
				c-0.8-0.16-0.74-0.59-1.6,0.69l-0.87-0.36c-0.18-0.04-0.79-0.14-1.01-0.18h1.07v-1.07c-1.23,0.13-0.98,0.78-1.07,0.27
				c-0.98-0.4,0.53-0.25,0.8-0.27v-0.8c-1.21,0.2-0.99,0.38-1.61-0.54c-0.59,0.51-0.36-0.09-0.54,0.8c-1.59,0-0.23,0.07-0.82-0.39
				c-0.07-0.06-0.04-1.18-0.79,0.12c-0.48-1.93-1.11-0.75-0.8-2.68c-0.36-0.3-0.18-0.05-0.67-0.13c-0.24-0.49,0.67-0.4-0.4-0.4
				c-0.41-0.59,0.61-0.58-0.32-0.16c-0.35,0.16-0.15-0.23-0.21,0.42c-0.11-1.2-0.24-0.35,0-1.34c2.01-0.51,1.63-0.55,1.74-1.21
				c-0.93,0.02-0.49,0.12-1.86,0.45c-1.05,0.26-4.28,2.39-4.68,2.94c-1.32,1.8-1.42,3.8-3.63,4.72l-0.68,0.34
				c0,0.06,0.02,0.1,0.03,0.17c0.16,1.03-1.03-0.15,0.13,0.2c1.13,0.35-0.06,0.2,0.38-0.11l-0.3,0.69c-0.25,0.61-0.84,0.9-1.82,1.23
				l-1.09,0.22c-0.58,1.35-0.16,1.09-1.49,1.97c-0.05,0.03-0.45,0.3-0.49,0.33l-1.48,0.89c-1.2,0.78-0.66,1.19-1.69,2.1
				c-0.81,0.71-1.48,0.58-1.55,1.95l-0.41-0.19c-1.97-0.07,1.34-0.17-0.53,0.05c0.64-0.2,0.61-0.36,0.67-0.4
				c0.06-0.54-0.37-0.23,0.1-0.76c0.2-0.23-0.38,0.4,0.24-0.21c0.05-0.05,0.23-0.2,0.28-0.26c0.37-0.41,0.2-0.08,0.46-0.65
				c0.35,0.06,0.1,0.09,0.16,0.14l0.65,0.4c0.92-1.89,0.71-0.46,0.93-2.21c0.17-1.43,0.16-0.32,1.49-0.74l0.23-1.91
				c2.02-2.97-0.25-1.09,2.18-2.11c-0.21-0.7-0.36-0.97-1.07-1.34c0.89-0.54,0.21-0.02,0.81,0.04c1.37,0.14,1.27-0.95,2.52-2.36
				c0.05-0.06,0.22-0.22,0.27-0.28c0.98-1.16,0.7-2.17,0.16-3.57c0.64-0.43,0.32-0.45,1.07-0.54c0.31,0.55,0.27,0.7,0.27,1.61
				l0.98-0.79c1.39-0.94-1,0.1,0.25-0.11c0.03-0.01,0.12,0.01,0.15,0.01l0.39,0.15c2.15,0.59-0.25-0.47,0.81-1.51
				c1.14-1.11,0.64,0.75,1.17-0.98h0.54c0,2.01-0.11,0.44,0.54,1.07l3.53-3.7c1.89-1.78,2.09-1.66,1.53-3.15
				c-0.35-0.94-0.04-0.62-0.78-1.19c0.08-0.49,0.1,0.02,0.23-0.24l0.04-0.57c1.32,0.52,1.43,0.73,2.14-0.27
				c-1.1-0.72-0.13-0.07-1.2-0.46c-0.03-0.01-0.1-0.03-0.13-0.05l-0.49-0.39c0.66-0.2,1.1-0.22,1.62-0.24
				c0.37-0.02,0.77-0.03,1.32-0.12c0.39-0.06,0.95-0.21,1.62-0.4c2.16-0.6,5.48-1.52,8.16-0.62l0,0l1.89,0.53l0,0
				c1.38,0.34,3.65,2.14,5.31,3.45c0.65,0.51,1.21,0.95,1.58,1.21c0.32,0.22,0.62,0.41,0.92,0.6c0.04,0.03,0.08,0.05,0.11,0.08
				c0.57,0.39,1.08,0.7,1.65,1.05c0.61,0.44,1.1,0.9,1.61,1.37c0.45,0.42,0.92,0.85,1.49,1.31c0.38,0.29,0.94,0.73,1.5,1.15
				c0.57,0.42,1.15,0.82,1.57,1.05c0.97,0.52,1.83,0.92,2.66,1.28c0.33,0.14,0.63,0.27,0.92,0.38c0.28,0.12,0.57,0.23,0.86,0.34
				c1.9,0.76,3.95,1.58,7.09,3.37c0.6,0.34,0.97,0.54,1.24,0.68c0.27,0.14,0.43,0.22,0.56,0.33c0.12,0.1,0.24,0.22,0.4,0.37
				c0.08,0.08,0.17,0.18,0.28,0.29c0.27,0.28,0.66,0.69,1.25,1.29c0.68,0.69,1.32,1.19,1.96,1.7c0.53,0.42,1.08,0.85,1.66,1.39
				c1.42,1.33,4.62,3.31,7.24,4.94c1.14,0.71,2.17,1.35,2.89,1.83c1.32,0.89,2.42,1.36,3.4,1.59l-0.04-0.13
				c-0.31-0.08-0.64-0.18-0.99-0.32c0.37,0.13,0.71,0.23,1.01,0.32c2.15,4.95,2.59,6.64,3.22,8.92
				C122.79,56.12,121.65,55.99,120.48,55.86L120.48,55.86z M79.73,53.45c0.51,0.01,1.02,0.02,1.52,0.03
				c-0.01-0.17-0.01-0.4-0.03-0.71C80.45,54.17,80.65,52.56,79.73,53.45L79.73,53.45z M33.12,54.36c2.01-0.13,4.07-0.24,6.15-0.34
				c-0.34-0.34-0.5-0.83-0.14-1.79c-0.83,0.46,0.79-0.39-0.41,0.42c-0.8,0.55-4.92,1.11-5.76,1.19
				C33.09,54.02,33.13,54.19,33.12,54.36L33.12,54.36z M42.27,53.88c0.48-0.02,0.96-0.04,1.44-0.06l-0.82-2.39
				c-0.28,0.99-0.84,0.32-0.71,1.96C42.19,53.44,42.22,53.64,42.27,53.88L42.27,53.88z M19.81,55.39l0.02-0.22
				c0.39,0.22-0.04,0.04,0.13,0.2L19.81,55.39L19.81,55.39z M25.91,54.87c0.14-0.13,0.26-0.29,0.36-0.49h0.54
				c0.02,0.21,0.03,0.34,0.03,0.42C26.53,54.82,26.22,54.84,25.91,54.87L25.91,54.87z M14.24,55.97l-0.85-1.06
				c0.77,0.25,0.75-0.02,1.88,0.27c-0.09,0.18-0.29,0.37-0.25,0.7C14.76,55.91,14.5,55.94,14.24,55.97L14.24,55.97z M16,55.77
				c0.76-0.08,1.53-0.16,2.32-0.24l1.44-1c0.86-0.23,1.4,0.12,2.7-0.26c0.04-0.01,0.11-0.03,0.15-0.04l1.33-0.62
				c0.66-0.4,0.07,0.07,0.57-0.46c0.67-0.7,1.83-1.35,2.38-2.15l0.69-0.96c0.04-0.04,0.11-0.09,0.15-0.12l0.29-0.24
				c0.71-0.71,0.08-0.2,0.57-0.75c0.94-1.05,2.79-0.79,3.87-1.79l0.56-0.88c0.02-0.03,0.08-0.09,0.1-0.12l0.53-0.68
				c0.01-0.03,0.02-0.11,0.04-0.15l0.1-0.32c0.77-1.45,1.31-0.03,2.14-2.14c-1.07,0.33-0.42,0.45-0.8-0.54
				c2.72,0,1.1-1.14,3.22-1.34l-0.8-0.27L38,39.93c0.02-0.06,0.06-0.57,0.06-0.84c-0.38,0.72-0.98,1.33-1.67,1.84
				c-1.06,0.78-1.14,0.81-2.08,0.3c-0.23,0.42-0.25,0.6-0.27,1.34c-0.48-0.14-0.68-0.62-1.1-0.05c-1.09,1.48-1.16,0.53-2.84,1.99
				c-0.42,0.36-0.03,0.2-0.62,0.47c0.09,0.56,0.18-0.14,0.54,0.8c-1.25,0.82-0.64,0.33-1.31,1.27c-0.02,0.03-0.06,0.09-0.09,0.12
				l-0.36,0.36c-0.73,0.6-0.93,0.39-1.38,0.6c-1.22,0.56-0.24-0.01-0.47,0.51l-0.21,0.57c-0.74,1.1,0,0-0.48,0.32
				c-0.43,0.29,0.02-0.26-0.03,0.46c-0.04,0.62-0.13,0.13,0.03,1.15c-1.12-0.19-0.75-0.19-1.88,0c0.39-2.01,0.23-0.3,0.8-1.34
				l-0.42,0.06c-0.02,0-0.1,0-0.12,0c-0.48-0.01-0.15-0.65-0.26-0.05h-0.54c1.25,0.47,0.45,0.23-0.3,1l-0.92,1
				c-0.02-0.04-0.08,0.1-0.12,0.15c-1.06-0.18-1.34-0.13-1.88-0.8c-0.16,0.96-0.3,0.78-1.29,0.8l0,0.01l-0.01,0.04l-0.04,0l-0.02,0
				c-0.73,1.55-1.26,2.74-2.33,3.49L16,55.77L16,55.77z M110.05,53.57c1.82,0,1.55-0.32,1.74-0.8c-1.96,0-0.41-0.8-2.01-0.8
				c-0.52,0-0.49,0.21-0.67,0.54c-0.07-0.06,0.19-0.17-1.34-0.8c0.2,1.07-0.13,0.91,1.41,1.57C110,53.61,108.66,53.57,110.05,53.57
				L110.05,53.57z M98.92,53.03l0.58-0.77c0.34,0.69,0.18,0.54,0.87,0.66l1.06-0.12c0.03-0.01,0.11-0.03,0.17-0.04l-0.54-0.54
				c0.18-0.03,0.28,0.1,0.39-0.1c0.47-0.85-1.04-0.61-1.73-0.97c2.31-0.12,0.72-0.8,0.4-0.8l-1.89-0.04
				c-1.55-0.01,1.3-0.28-0.51,0.14l-2.56,0.17c0.46,0.9-0.26,0.24,0.42,0.6c1.05,0.55,0.01,0.16,0.38-0.06v0.27
				c-0.69-0.08-0.46-0.12-1.34-0.27v0.8c0.65,0.18,1.08,0.95,1.61,0C96.99,53.07,97.47,53.03,98.92,53.03L98.92,53.03z M71.85,51.42
				c0.68,0.29,1.03,0.39,1.88,0.54l0.25-0.81c0.72,0.88,2.72,0.94,3.77,0.54c-1.3-1.32-1.61-0.4-3.8-1.33
				c-0.49-0.21-0.01-0.01-0.76-0.28c-0.72,1.07-0.62,0.46-0.97,0.76C71.8,51.2,72.21,50.5,71.85,51.42L71.85,51.42z M67.61,51.44
				c0.58,0.19,0.9,0.21,1.2,0.2c1.02-0.03,0.78-0.12,1.15-0.48c-0.55-0.46-0.57-0.33-1.04-0.39c-1.06-0.13-0.55-0.26-1.1-0.46
				l-0.59-0.09c-1.26-0.15-0.8-0.9-1.82-0.12C65.92,51.18,64.83,50.51,67.61,51.44L67.61,51.44z M53.61,49.01v1.21v0.67
				c0.56,0.24,1.01,0.34,1.61,0.54c-0.03-1.48,0.36-1.27-0.8-1.61C54.76,49.17,55,49.06,53.61,49.01L53.61,49.01z M93.83,48.21v1.34
				c0.35,0,0.41,0.02,0.64-0.05l0.45-0.55C94.46,48.13,94.32,48.41,93.83,48.21L93.83,48.21z M92.49,50.35
				c0.2-1.08,0.24-1.6-0.8-2.14c1.91,0,1.85,0.45,2.14-1.07c-1.94,0.12-1.58,0.32-3.49,0l0.42,1.14
				C90.99,49.22,91.61,49.94,92.49,50.35L92.49,50.35z M72.38,48.21c-1.71-1.68-0.1-2.27-2.41-2.41c0,1.85-0.52,1.86,0.49,3.47
				c0.5,0.79,0.42,0.57,1.12,0.82c0.46-1.46,0.29-0.19-0.27-1.34l0.87-0.38C72.23,48.33,72.32,48.26,72.38,48.21L72.38,48.21z
				 M88.47,47.67V46.6c-2.4-0.51-1.81,0.14-2.14,0.54C87.23,47.73,86.54,47.67,88.47,47.67L88.47,47.67z M83.37,47.67
				c-0.47-0.98-0.33-0.86-1.61-1.07c0.36,0.88-0.03,0.17,0.34,0.71c1.15,1.63,0.86-0.1,0.73,1.97c0.95-0.43,0.48,0.24,0.8-0.8
				l1.04,0.77c0.02,0.03,0.07,0.12,0.08,0.14c0.02,0.03,0.05,0.11,0.08,0.16c0.5-0.21,0.98-0.33,1.47-0.54
				c-0.77-2.2-1-1.24-2.14-2.95c-0.6,0.2-0.78,0.25-1.61,0.27l0.47,0.59C83.38,47.42,83.27,46.8,83.37,47.67L83.37,47.67z
				 M97.09,46.26c0.58,0.54,0.19,0.19,1.03,0.34c-0.05-0.77,0.2-0.72-0.25-1.12c-0.66-0.59-0.78,0.03-0.82,0.05
				C97.04,45.53,96.14,45.37,97.09,46.26L97.09,46.26z M92.49,44.72c0.74,0.32,0.33,0.2,1.34,0.27l0-0.27
				c0.06,0.32-0.16,0.37,0.23,0.57c1.11,0.56,0.21,0.09,0.57-0.03v-1.34l-1.46,0.06c-0.07,0.02,0.14-0.25-0.29,0.1L92.49,44.72
				L92.49,44.72z M98.39,42.58v-0.8c-0.35,0-0.41-0.02-0.64,0.05l-0.43,0.21c-0.02,0.06-0.05,0.1-0.04,0.19
				c0,0.09-0.03,0.15-0.02,0.18c0.15,0.62,0.27,0.54,0.6,0.97c0.77,0.08,0.48-0.12,0.54-0.27c0.1,1.01,0.01,0.47,0.27,1.07
				l1.07-0.54l-1.07-2.14C98.45,41.98,98.39,41.77,98.39,42.58L98.39,42.58z M90.75,41.1c-2.07-0.01-1.87,0.91-2.01,1.21l0.8-0.07
				c0.46-0.06,1.67,0.21,1.78,0.8l0.1,1.15c1.06-0.76-0.01-0.02,2.41-0.54l-2.21-1.59c-0.2-0.09-0.8-0.24-1-0.29
				C91.07,41.37,90.75,41.69,90.75,41.1z M90.75,41.1c0.5-0.11,0.31,0.24,0.54-0.13c0.82,0.81,0.41,0.78,2.01,0.8
				c0.39-1.02,0.12-0.41,0.18-1.13c0.02-0.21,0.09-1.09,0.09-1.55c-1.36,0.26-1.29,0.05-0.8,1.34c-0.8-0.5-0.44,0.84-0.8,0
				c-0.75-0.17-0.42,0.02-0.8-0.54c-2.04,0-2.06-0.11-2.41,0.8C90.12,40.7,89.84,40.5,90.75,41.1L90.75,41.1z M71.85,41.5
				c0.2,0.81,0,1.03,0,2.41c1.94,1.27,0.7,1.41,2.02,2.56c0.64,0.56-0.59,0.31,0.93,0.38c-0.12,0.04-0.74-0.1-0.54,0.8L75,47.66
				c0.79-0.18-0.21,0.06,0.6-0.25c0.29,1.05,0.52,1.14,1.61,1.34l-0.68-1.87c-0.29-0.94,0.53-0.02-0.84-1.68
				c-0.74-0.89-1.13-3.52-1.16-5.03c-0.6-0.23,0.09,0.37,0.54-0.8l-2.95-0.8c-0.2-1.37,0.29-0.42-0.8-0.8l-0.26,1.03
				c-0.03,0.05-0.1,0.08-0.23,0.27l-0.41,1.81c0.03,0.9,0.17,0.58,0.36,1.45C72.61,42.07,71.28,42.6,71.85,41.5L71.85,41.5z
				 M68.49,36.81c0.3,0.9,0.8,1.2,1.74,1.47c-0.23-0.77-0.09-0.64-0.23-1.53c-0.21-1.37-0.14-1.02-1.11-1.42
				c-0.4,1.26-0.12,0.28,0,1.34L68.49,36.81L68.49,36.81z M90.38,32.44c0.01,0.02,0.04,0.11,0.05,0.13l3.4,2.23l-1.86,0.35l0.9,0.45
				c0.92,0.47,0.2,0.32,0.54,0.78c0.28,0.38-0.67,0.23,0.69,0.3c-0.56,0.31-1.03,0.47-1.88,0.54c0.15,1.11-0.03,0.85,2.14,1.61
				c0.21-0.49,0.33-0.98,0.54-1.47c0.01,0,0.01,0.01,0.01,0.01c0.01,0.05,0.08,0.05,0.14,0.08c0.45,0.23-0.15-0.03,0.65,0.31
				l-0.11-0.83c-0.02-0.05-0.11-0.17-0.16-0.24l1.07,0.8l-0.45-1.69c-0.39-0.61-0.06,0.18-0.35-0.46l1.5,0.72
				c1.33,0.38,1.6,0.21,3.33,0.09c-0.05-0.07-0.13-0.24-0.16-0.19l-0.44-0.62c-0.65-1.31,0.12-1.8-3.58-2.2
				c-0.44-0.05-1.63,0.06-2.53,0.06c-0.22-0.76,0.08-0.47-0.59-0.78c-1.72-0.79,0.24,0.15-0.89,0.05c-0.58-0.05-0.09-0.1-0.71-0.33
				c-0.07-0.03-0.47-0.39-1.29-0.01L90.38,32.44L90.38,32.44z M69.39,31.35c-0.44-0.39-0.73-0.37-1.29-0.57
				c0.1,1.61,0.47,1.38,1.88,1.88C69.81,31.8,69.95,31.84,69.39,31.35L69.39,31.35z M87.66,31.05l2.41,0.27
				c0.28-0.59,0.1-0.09,0.27-0.94c-0.82-0.46-0.33,0.18-0.73-0.34c-0.59-0.79-0.51-0.54-1.42-0.86
				C88.19,30.49,87.95,30.09,87.66,31.05L87.66,31.05z M87.93,29.71c-0.22-0.71-0.14-0.46,0-1.34c-1.02,0-1.31-0.13-2.14-0.27
				C86.05,29.52,86.31,29.68,87.93,29.71L87.93,29.71z M90.68,36.95c0.21,0,0.7,0.02,0.88-0.02l0.69-0.26
				c0.06-0.03,0.16-0.07,0.23-0.12c-0.86-1.71-0.77-0.22-1.61-1.47l0.54-0.54c-1.43-0.1-0.39,0.17-0.93-0.38
				c-1.05-1.05,0.34,0.35-0.34-0.84c-0.02-0.04-0.06-0.11-0.08-0.14c-0.03-0.04-0.08-0.11-0.11-0.14l-0.67-0.41
				c-0.05-0.02-0.13-0.04-0.19-0.05c-0.05-0.02-0.13-0.02-0.18-0.04l-0.31-0.06c-1.09-0.37-0.91-0.68-3.08-1.03
				c-0.19-0.03-0.67-0.08-1.08-0.12l0.54-0.8c-1.66-0.71-0.98-0.84-2.21-2.08l-3.3-3.01c-0.45-0.27-0.65-0.47-1.15-0.86l-1.24-0.93
				c-0.63-0.36-1.11-0.41-1.75-0.68c-1.75-0.73-4.56-2.03-6.54-1.76c-1.27,0.17-2.62,1-2.64,2.3c-0.01,0.5,0.06,0.52,0.1,0.65
				l0.4,0.74c1.17,0.6-0.04,0.26,0.38,0c-0.02,0.63-0.16,1.38-0.18,1.41c-0.13,0.37-0.42,0.61-0.63,1c-0.25-0.97,0.01-0.1-0.27-0.8
				c0.27,0.17,0.49,0,0.61-0.24l0.19-0.83c-1.52,0.46-0.22,0.15-1.88,0c0-0.14,0.01-0.6-0.02-0.7c-0.27-0.87,0.06-0.34-0.52-0.91
				c-0.55,0.83-0.86,0.88-0.54,1.88c-0.09-0.05-0.33-0.23-0.35-0.24c-0.09-0.04-0.02-0.09-0.73-0.3l1.6,2.92
				c1.28,1.82,0.74,0.84,2.45,1.65l2.38,1.06c0-0.81-0.03-1.41-0.09-2.19l-0.55-2.46c-0.35-0.32-0.48,0.66-0.71-1.24l0.62,0.46
				c0.02,0.02,0.08,0.06,0.11,0.08c0.03,0.02,0.09,0.07,0.11,0.09c0.76,0.5,2.32,0.65,4.43,1.91l3.38,2.95
				c0.03,0.07,0.04,0.15,0.07,0.21c0.33,0.75,0.98,0.98,1.73,1.28c-0.21-1.08,0.31-0.75-0.8-1.07c0.06-0.54,0.74,0.09,1.07,0.27
				c-0.19,1.63,0.28,1.52,1.53,2.5l1.96,0.72c-1.49,0.42-0.89,0.42-1.31,0.93l-0.3,0.41c1.17,0.77,4.22,3.22,5.49,3.68l1.04-0.37
				c0.06-0.71-0.36-1.52,0.71-2.17c0.15,0.7,0.27,0.69,2.68,0.74L90.68,36.95L90.68,36.95z M58.04,26.62
				c0.99,0.11,0.98,0.03,1.68-0.44c0.61-0.41,0.88-0.69,1.41-1.03c-0.05-0.82,0.07-0.4-0.17-1.13l-0.53-1.34
				c-0.01-0.03-0.04-0.12-0.06-0.15l-0.18-0.32c-1.47,0.74-0.83,0.99-1.48,3.29C58.48,26.27,58.41,26.03,58.04,26.62z"/>
		</g>
		<g>
			<path class="st0" d="M43.96,50.62v-0.54c1.18,0.07,0.85-0.35,1.34,0.54l0.8-1.61c-0.24,0.41-0.81,0.55-1.02,0.53
				c-0.56-0.04-0.07,0.04-0.56-0.23c-0.97-0.53-1.23-1.01-2.17-1.38c-0.03,1-0.4,1.34,0.07,2.05
				C42.71,50.43,43.49,50.56,43.96,50.62z"/>
		</g>
		<g>
			<path class="st0" d="M51.2,38.55l0.92,0.71c0.69,0.74,0.04,0.09,0.36,0.71c0.89,1.72,0.51-1.18,0.87,0.99
				c0.57-0.73,0.44-0.33,1.07-0.94c-0.3-1.08-1.12-1.52-2.14-1.74C52.05,37.76,52.55,38.43,51.2,38.55z"/>
		</g>
		<g>
			<path class="st0" d="M36.86,44.59c-1.07,0.67-0.46,0.5-0.94,1.74c0.43,0.25,0.27,0.1,0.81,0.17c1.62,0.21,0.83,1.04,2.14,0.36
				h-0.8l0-1.61c-0.03,0.05,0.32,0.46-0.56,0.1c-0.6-0.25,0.03-0.27-1.05-0.1C36.87,44.27,36.35,45.15,36.86,44.59z"/>
		</g>
		<g>
			<path class="st0" d="M51.74,21.93c0.4,0.82,0.63,0.3,0.8,1.34c0.54-0.94,0.4-0.83,1.88-1.61h-0.54
				C53.88,20.13,54.38,21.68,51.74,21.93z"/>
		</g>
		<g>
			<path class="st0" d="M49.86,36.95c0.12-0.22-0.34-0.19,0.2-0.3l0.33,0.04c0.03,0.07,0.09,0.11,0.09,0.21
				c0,0.18,0.19,0.22-0.09,0.59c1,0.03,0.69,0.02,1.34,0.27c0.24-0.43,0.09-0.22,0.27-0.73c0.23-0.66-0.05-0.24,0.27-0.61
				L49.86,36.95z"/>
		</g>
		<g>
			<path class="st0" d="M26.27,53.84c1.12-0.03,0.47-0.16,1.61-0.27v-0.8C27.24,53.01,26.58,53.29,26.27,53.84z"/>
		</g>
		<g>
			<path class="st0" d="M39.94,49.01c0.3-1.9,0.11,0.23,0.54-1.34c0.04-0.02,0.73,0.08-0.22-0.35c-0.37-0.17-0.25,0.01-0.85-0.19
				C39.72,47.94,39.94,47.83,39.94,49.01z"/>
		</g>
		<g>
			<path class="st0" d="M54.15,44.18c0.84,0.39,0.97,0.47,1.07,1.61c0.47-0.06,0.03,0.01,0.15-0.56c0.17-0.83,0.14-0.17-0.15-1.31
				C54.63,44.14,55.26,44.11,54.15,44.18z"/>
		</g>
		<g>
			<path class="st0" d="M59.65,41.37l-0.16-0.93c0.34-0.14,0.47,0.26-0.09-0.4c-0.49-0.6,0.26-0.29-0.69-0.4
				C58.82,40.56,59.15,40.17,59.65,41.37z"/>
		</g>
		<g>
			<path class="st0" d="M65.41,40.7c0.7,0.29,0.22-0.13,0.54,0.54c0.62-0.24-0.13-0.11,0.8-0.27l-0.8-1.07
				C66.14,40.66,66.62,40.59,65.41,40.7z"/>
		</g>
		<g>
			<path class="st0" d="M57.23,29.31c-0.54,0.34-0.59,0.26-0.67,0.94h0.54L57.23,29.31z"/>
		</g>
		<g>
			<path class="st0" d="M82.03,32.39c0.13-0.47,0.03-0.3,0.27-0.54c-0.64-0.43-0.32-0.45-1.07-0.54
				C81.52,31.59,81.84,32.02,82.03,32.39z"/>
		</g>
		<g>
			<path class="st0" d="M99.89,32.96c0.59,0.34,0.97,0.54,1.24,0.68c0.31,0.16,0.46,0.24,0.63,0.37c0.16,0.13,0.32,0.3,0.64,0.64
				c0.27,0.28,0.65,0.69,1.25,1.29c0.67,0.68,1.31,1.18,1.95,1.69c0.53,0.42,1.08,0.85,1.66,1.39c1.41,1.32,4.6,3.3,7.22,4.93
				c1.14,0.7,2.16,1.34,2.9,1.83c1.27,0.85,2.35,1.32,3.3,1.55l0.04,0.13c-0.98-0.24-2.08-0.71-3.4-1.59
				c-0.73-0.49-1.76-1.13-2.89-1.83c-2.62-1.63-5.82-3.61-7.24-4.94c-0.58-0.54-1.12-0.97-1.66-1.39c-0.65-0.51-1.28-1.01-1.96-1.7
				c-0.59-0.6-0.98-1-1.25-1.29c-0.32-0.34-0.48-0.5-0.63-0.63c-0.15-0.12-0.3-0.2-0.61-0.36c-0.26-0.14-0.64-0.34-1.24-0.68
				c-3.14-1.79-5.19-2.61-7.09-3.37c-1.43-0.57-2.78-1.11-4.44-2c-0.42-0.23-1-0.63-1.57-1.05c-0.57-0.42-1.13-0.85-1.5-1.15
				c-0.58-0.45-1.04-0.89-1.49-1.31c-0.65-0.61-1.28-1.19-2.15-1.74c-0.21-0.13-0.43-0.27-0.64-0.4c-0.5-0.31-0.97-0.61-1.49-0.96
				c-0.38-0.25-0.94-0.7-1.58-1.21c-1.66-1.32-3.93-3.11-5.31-3.45l0,0l-1.89-0.53l0,0c-2.68-0.9-6,0.02-8.16,0.62
				c-0.67,0.19-1.23,0.34-1.62,0.4c-0.55,0.08-0.95,0.1-1.32,0.12c-0.53,0.02-0.98,0.04-1.65,0.25l-0.02,0
				c-1.7,0-1.82,0.13-2.19,0.55c-0.19,0.22-0.46,0.51-1.02,0.89c-0.13,0.09-0.28,0.19-0.44,0.3c-1.45,0.99-4.24,2.89-4.76,3.87
				c-0.32,0.61-0.26,0.74-0.16,0.94c0.08,0.17,0.19,0.38,0.15,0.91c-0.08,0.96-0.41,1-0.91,1.06c-0.44,0.05-1.02,0.11-1.68,0.92
				c-0.86,1.03-1.36,1.66-1.67,2.05c-0.27,0.34-0.39,0.49-0.47,0.56c-0.07,0.06-0.11,0.06-0.18,0.06c-0.13,0-0.39-0.01-1.55,0.72
				c-0.24,0.15-0.77,0.65-1.26,1.16c-0.43,0.45-0.82,0.91-0.95,1.16c-0.13,0.25-0.2,0.4-0.27,0.53c-0.5,0.99-0.69,1.35-0.86,1.54v0
				c-0.1,0.12-0.2,0.17-0.35,0.25c-0.28,0.15-0.75,0.4-1.83,1.37c-0.45,0.4-0.78,0.54-1.1,0.67c-0.46,0.19-0.91,0.38-1.7,1.33
				c-0.2,0.24-0.32,0.41-0.41,0.53c-0.23,0.33-0.23,0.33-0.92,0.59l0,0l-0.6,0.2l-0.17,0.09l-0.44,0.36
				c-1.08,0.94-1.52,1.71-1.99,2.56c-0.61,1.08-1.29,2.29-3.42,4.08c-0.14,0.12-0.21,0.17-0.26,0.21h0
				c-0.09,0.07-0.12,0.09-0.32,0.29c-0.82,0.81-0.93,0.85-1.59,1.1h0c-0.27,0.1-0.62,0.23-1.15,0.46c-0.03,0.01-0.06,0.03-0.09,0.04
				l0,0c-0.04,0.01-0.07,0.03-0.1,0.04l-0.54,0.27c-1.16,0.63-1.93,0.99-2.46,1.22c-0.43,0.2-0.69,0.32-0.87,0.45
				c-0.26,0.21-0.33,0.47-0.5,1.13l-0.06,0.22l-0.01,0.04l-0.04,0c-0.18,0-0.34,0-0.49,0c-1.45-0.02-1.63-0.02-3.23,1.34
				c-1.06,0.9-1.27,0.98-1.68,1.12c-0.2,0.07-0.45,0.16-0.87,0.37c-1.25,0.64-2.02,1.2-2.57,1.64L9.72,56.5
				c0.57-0.45,1.36-1.06,2.73-1.76c0.43-0.22,0.68-0.31,0.88-0.38c0.39-0.14,0.6-0.21,1.64-1.1c1.63-1.38,1.81-1.38,3.3-1.36
				c0.14,0,0.28,0,0.44,0l0.05-0.18c0.18-0.69,0.25-0.96,0.54-1.19c0.18-0.14,0.45-0.27,0.89-0.47c0.52-0.24,1.29-0.59,2.45-1.22
				l0,0l0.54-0.27l0,0c0.04-0.02,0.07-0.03,0.11-0.05v0c0.03-0.01,0.06-0.03,0.09-0.03c0.54-0.23,0.89-0.37,1.16-0.46l0,0
				c0.64-0.24,0.74-0.28,1.55-1.07c0.2-0.2,0.24-0.23,0.33-0.3v0c0.05-0.04,0.12-0.1,0.26-0.21c2.12-1.78,2.79-2.98,3.39-4.05
				c0.48-0.86,0.93-1.65,2.02-2.59l0,0l0.45-0.36l0.01-0.01l0.18-0.09l0.01,0l0.6-0.2c0.65-0.25,0.65-0.25,0.87-0.55
				c0.09-0.12,0.21-0.29,0.41-0.54c0.81-0.97,1.27-1.17,1.74-1.37c0.32-0.13,0.64-0.27,1.07-0.66c1.09-0.97,1.57-1.23,1.85-1.38
				c0.14-0.08,0.23-0.13,0.33-0.23v0c0.16-0.18,0.35-0.54,0.84-1.52l0.27-0.53c0.13-0.25,0.53-0.72,0.96-1.18
				c0.49-0.52,1.03-1.02,1.28-1.17c1.18-0.75,1.47-0.74,1.61-0.74c0.04,0,0.06,0,0.11-0.04c0.07-0.06,0.19-0.21,0.46-0.54
				c0.31-0.39,0.81-1.02,1.67-2.05c0.69-0.83,1.3-0.9,1.75-0.95c0.45-0.05,0.75-0.08,0.82-0.96c0.04-0.49-0.06-0.69-0.13-0.85
				c-0.11-0.23-0.18-0.38,0.16-1.03c0.53-1,3.33-2.91,4.79-3.91c0.17-0.11,0.32-0.22,0.44-0.3c0.55-0.38,0.81-0.66,1-0.88
				c0.4-0.45,0.53-0.58,2.27-0.58c0.69-0.21,1.14-0.23,1.67-0.25c0.36-0.02,0.77-0.03,1.31-0.12c0.39-0.06,0.94-0.21,1.61-0.4
				c2.17-0.6,5.51-1.53,8.22-0.62l1.89,0.53c1.4,0.35,3.68,2.15,5.35,3.47c0.65,0.51,1.2,0.95,1.58,1.2
				c0.52,0.35,0.99,0.64,1.49,0.96c0.2,0.12,0.4,0.25,0.64,0.4c0.89,0.56,1.51,1.14,2.17,1.75c0.45,0.42,0.91,0.85,1.49,1.3
				c0.38,0.29,0.93,0.73,1.5,1.14c0.57,0.42,1.14,0.81,1.56,1.04c1.65,0.89,3,1.43,4.42,2C94.69,30.35,96.74,31.17,99.89,32.96z"/>
			<path class="st1" d="M9.77,56.89L9.48,56.2c0.68-0.54,1.46-1.12,2.8-1.8c0.46-0.23,0.72-0.33,0.93-0.4
				c0.35-0.13,0.53-0.19,1.52-1.03c1.67-1.42,1.94-1.47,3.55-1.45l0.14,0c0.17-0.65,0.27-0.99,0.65-1.28
				c0.22-0.17,0.52-0.31,0.97-0.51c0.51-0.24,1.28-0.59,2.42-1.21l0.6-0.3c0.02-0.01,0.05-0.02,0.08-0.03l0.1-0.04
				c0.54-0.24,0.91-0.37,1.17-0.47c0.61-0.22,0.67-0.25,1.42-0.98c0.22-0.22,0.26-0.25,0.36-0.33c0.06-0.04,0.12-0.1,0.24-0.2
				c2.06-1.74,2.72-2.91,3.31-3.95c0.49-0.88,0.96-1.7,2.1-2.7l0.53-0.42l0.24-0.12l0.6-0.2c0.53-0.2,0.53-0.2,0.68-0.41
				c0.1-0.13,0.22-0.31,0.43-0.56c0.87-1.05,1.39-1.26,1.89-1.47c0.31-0.13,0.58-0.24,0.96-0.59c1.12-1.01,1.63-1.28,1.93-1.44
				c0.13-0.07,0.18-0.1,0.22-0.15c0.13-0.15,0.34-0.55,0.79-1.44l0.27-0.53c0.18-0.36,0.72-0.95,1.03-1.27
				c0.45-0.47,1.05-1.04,1.35-1.23c1.04-0.66,1.46-0.78,1.72-0.8c0.07-0.08,0.2-0.24,0.36-0.44c0.31-0.39,0.82-1.02,1.68-2.05
				c0.79-0.95,1.52-1.04,2.01-1.09c0.39-0.04,0.43-0.05,0.48-0.61c0.03-0.39-0.03-0.52-0.1-0.65c-0.19-0.38-0.21-0.67,0.17-1.38
				c0.53-1,2.81-2.61,4.91-4.04l0.45-0.3c0.51-0.35,0.74-0.61,0.93-0.82c0.52-0.58,0.8-0.71,2.5-0.71c0.7-0.21,1.19-0.23,1.71-0.25
				c0.35-0.02,0.74-0.03,1.27-0.11c0.37-0.06,0.92-0.21,1.56-0.39c2.24-0.62,5.62-1.56,8.44-0.61l1.87,0.52
				c1.47,0.37,3.79,2.2,5.49,3.54c0.64,0.51,1.19,0.94,1.55,1.19c0.51,0.35,0.98,0.64,1.48,0.95c0.2,0.13,0.41,0.25,0.64,0.4
				c0.91,0.58,1.55,1.17,2.22,1.8c0.44,0.41,0.9,0.84,1.46,1.28c0.37,0.29,0.93,0.72,1.49,1.14c0.66,0.48,1.17,0.82,1.52,1.01
				c1.64,0.88,2.97,1.41,4.38,1.98c1.87,0.75,3.98,1.59,7.15,3.4c0.59,0.33,0.96,0.53,1.22,0.67c0.32,0.17,0.5,0.26,0.69,0.41
				c0.18,0.14,0.35,0.32,0.68,0.66c0.28,0.29,0.66,0.69,1.25,1.29c0.66,0.66,1.27,1.14,1.91,1.65c0.54,0.43,1.1,0.86,1.69,1.42
				c1.38,1.29,4.58,3.28,7.15,4.87c1.13,0.7,2.18,1.35,2.92,1.85c1.13,0.76,2.17,1.25,3.18,1.5l0.21,0.05l0.33,0.99l-0.67-0.16
				c-1.13-0.27-2.28-0.81-3.52-1.65c-0.71-0.48-1.74-1.12-2.83-1.79l-0.05-0.03c-2.6-1.62-5.85-3.63-7.3-4.99
				c-0.57-0.53-1.11-0.96-1.63-1.37c-0.64-0.5-1.3-1.02-2-1.73c-0.59-0.6-0.98-1.01-1.25-1.29c-0.31-0.32-0.46-0.48-0.59-0.59
				c-0.12-0.09-0.25-0.16-0.55-0.32c-0.28-0.15-0.66-0.35-1.25-0.68c-3.11-1.78-5.11-2.57-7.04-3.34c-1.44-0.58-2.8-1.12-4.47-2.02
				c-0.38-0.21-0.91-0.56-1.62-1.07c-0.57-0.42-1.13-0.86-1.51-1.15c-0.59-0.46-1.06-0.9-1.52-1.33c-0.64-0.6-1.25-1.16-2.1-1.7
				c-0.21-0.13-0.42-0.27-0.63-0.4l-0.05-0.03c-0.49-0.31-0.95-0.59-1.46-0.94c-0.39-0.26-0.94-0.7-1.59-1.21
				c-1.63-1.29-3.84-3.03-5.14-3.38l-0.06-0.01l-1.89-0.53c-2.59-0.87-5.82,0.03-7.95,0.62c-0.67,0.19-1.25,0.35-1.67,0.41
				c-0.56,0.09-0.98,0.1-1.35,0.12c-0.53,0.02-0.94,0.04-1.57,0.23l-0.13,0.02c-1.53,0-1.6,0.08-1.91,0.42
				c-0.21,0.23-0.49,0.54-1.08,0.95l-0.44,0.3c-1.25,0.85-4.16,2.83-4.63,3.73c-0.23,0.44-0.21,0.49-0.16,0.59
				c0.09,0.19,0.23,0.48,0.18,1.11c-0.1,1.19-0.6,1.34-1.25,1.41c-0.4,0.05-0.86,0.1-1.43,0.78c-0.84,1.02-1.35,1.64-1.65,2.03
				c-0.31,0.39-0.43,0.53-0.53,0.62c-0.17,0.15-0.32,0.16-0.44,0.16c0,0,0,0,0,0c-0.23,0-0.85,0.36-1.33,0.66
				c-0.17,0.11-0.64,0.53-1.18,1.1c-0.54,0.56-0.81,0.93-0.88,1.06l-0.27,0.52c-0.53,1.05-0.71,1.4-0.92,1.63
				c-0.15,0.17-0.29,0.24-0.46,0.33c-0.27,0.14-0.71,0.38-1.76,1.32c-0.5,0.44-0.87,0.6-1.21,0.74c-0.43,0.18-0.83,0.35-1.56,1.23
				c-0.19,0.23-0.31,0.39-0.39,0.51c-0.3,0.42-0.39,0.46-1.09,0.73l-0.7,0.25l-0.41,0.33c-1.02,0.88-1.43,1.61-1.9,2.45
				c-0.62,1.1-1.32,2.35-3.51,4.19c-0.14,0.12-0.22,0.18-0.27,0.22c-0.08,0.06-0.11,0.09-0.28,0.26c-0.86,0.84-1.02,0.92-1.72,1.18
				c-0.27,0.1-0.62,0.23-1.13,0.45l-0.18,0.08l-0.53,0.26c-1.16,0.63-1.95,0.99-2.47,1.23c-0.39,0.18-0.65,0.3-0.79,0.41
				c-0.15,0.12-0.2,0.29-0.37,0.92l-0.13,0.51L18.8,52.4l-0.53-0.01c-1.4-0.02-1.49-0.02-2.97,1.25c-1.07,0.91-1.32,1.02-1.8,1.19
				c-0.2,0.07-0.42,0.15-0.82,0.35c-1.18,0.6-1.9,1.12-2.51,1.6l-0.08,0.06L9.77,56.89z"/>
		</g>
	</g>
	<path class="st0" d="M41.42,117.6c-0.52,0.15-1.01,0.38-1.42,0.8c0.23,0.12,0.45,0.24,0.68,0.36c0.74-0.59,1.85-0.64,2.71-0.78
		c-0.68-0.74-1.43-0.68-2.16-1.45l2.71-0.83c-0.55-0.45-0.95-0.26-1.4-0.74c0.85-0.41,0.76-0.14,1.51-0.39
		c1.11-0.37,0.33-0.21,1.13-0.87l-1.65-0.68c0.09-0.14,0.21-0.26,0.35-0.36l-0.63-0.42c-0.13,0.12-0.25,0.26-0.34,0.41l-0.44,0.72
		l1.29,0.53c-0.16,0.05-0.27,0.07-0.45,0.08c-0.41,0.03-0.72,0.15-1.09,0.33l-0.88,0.43l0.67,0.71c0.02,0.02,0.04,0.04,0.06,0.06
		l-2.17,0.66l0.8,0.85C40.94,117.28,41.17,117.45,41.42,117.6L41.42,117.6z M45.67,111.19l-0.69-0.45l0.49-0.26l-0.53-0.51
		l0.63-0.52c0.04-0.03,0.08-0.06,0.12-0.09l3.72-5.7l0.41,4.44l0,0.03c0,0.09,0,0.17,0,0.26c0.01,0.06,0.02,0.12,0.03,0.19
		c0.01,0.05,0.02,0.1,0.03,0.15c0.03,0.15,0.05,0.29,0.08,0.44c0,0.03,0.01,0.07,0.02,0.11c0.1,0.07,0.29,0.15,0.37,0.19l0.9,0.42
		l-1.01,1.08c0.21,0.19,0.56,0.32,0.78,0.43l1.31,0.62l-1.29,0.67c0,0-0.01,0-0.01,0c0.28,0.25,0.53,0.55,0.74,0.9l0.4,0.69
		l-0.73,0.33c-0.09,0.04-0.18,0.08-0.27,0.12l-0.82-0.53c0.17,0.02,0.37-0.06,0.8-0.25c-0.47-0.82-1.32-1.28-2.1-1.75
		c0.79-0.19,0.99,0.19,1.66-0.16c-0.52-0.25-0.92-0.4-1.19-0.82c-0.43-0.66-0.24-0.11-0.03-0.52l0.55-0.59
		c-0.88-0.41-0.7-0.45-0.86-1.24c-0.01-0.06-0.02-0.13-0.03-0.19c-0.09-0.59-0.03,0.4-0.04-0.55l-0.22-2.35l-2.68,4.11
		c-0.04,0.03-0.13,0.07-0.18,0.12l0.67,0.64L45.67,111.19L45.67,111.19z M52.01,118.03c-0.79,0.41-0.41,0.11-1.21,0.22
		c-0.5,0.07-0.18-0.01-0.61,0.11c-0.45,0.12-0.28,0.08-0.57,0.24c0.43,0.24,0.91,0.52,1.38,0.83c1.06,0.7,0.74,0.37,0.87,1.25
		c-0.96,0.12-1.69-0.33-2.45,0.03c1.09,0.58,2.69,0.81,2.88,2.1l-2.02-0.44c0,0.02,0,0.03,0.01,0.05c0.91,0.25,1.84,0.48,2.78,0.69
		l-0.06-0.4c-0.05-0.37-0.19-0.72-0.42-1.02c-0.1-0.13-0.2-0.24-0.31-0.34l0.41-0.05l-0.11-0.73c-0.04-0.28-0.01-0.59-0.13-0.85
		c-0.14-0.32-0.53-0.56-0.85-0.76c0.27-0.04,0.53-0.18,0.78-0.31l0.32-0.17L52.01,118.03z"/>
	<path class="st0" d="M22.98,93.42c0.09-0.02,0.01,0.02,0.11-0.05c0.08-0.05,0.31-0.35,0.64-0.14c0.32,0.2,0.23,0.44,0.2,0.71
		c-0.02,0.17-0.02,0.24,0,0.38c0.04,0.32,0.03,0.72,0.25,1.05l0.01,0.14c0,0.01-0.01,0.12-0.01,0.14c-0.03,0.11-0.11,0.22-0.2,0.29
		c-0.44,0.34-0.6-0.38-1.78-0.62C21.02,95.08,22.53,94.2,22.98,93.42L22.98,93.42z M24.5,92.87c0.03-0.08,0.07-0.15,0.11-0.23
		c0.09-0.13,0.2-0.24,0.33-0.32c0.04-0.14,0.12-0.28,0.25-0.42c0.12-0.13,0.27-0.23,0.44-0.28c0.05-0.09,0.12-0.18,0.22-0.27
		c0.16-0.15,0.35-0.25,0.56-0.27c0.07-0.08,0.16-0.16,0.27-0.23l0.09-0.06l0.11-0.03c0.11-0.03,0.22-0.05,0.33-0.05
		c0.05-0.04,0.1-0.09,0.16-0.13l0.06-0.04l0.07-0.03c0.12-0.05,0.23-0.08,0.33-0.09c0.15-0.17,0.34-0.29,0.6-0.3
		c0.08,0,0.14,0,0.2,0.01c0.29-0.22,0.6-0.43,0.96-0.4c0.04,0,0.07,0.01,0.11,0.01l0.29-0.21c-0.52,0.17-1.06,0.32-1.57,0.44
		c-0.2,0.04-0.4,0.08-0.6,0.13c-0.13,0.03-0.31,0.06-0.44,0.11l-0.23,0.15l-0.18-0.05l-0.16,0.04l-0.01,0
		c-0.17,0.03-0.58,0.19-0.7,0.3l-0.15,0.14l-0.12,0.03c-0.17,0.1-0.4,0.32-0.53,0.44c-0.34,0.3-0.67,0.61-0.99,0.93
		c-0.11,0.11-0.23,0.22-0.34,0.33c0.07,0.03,0.13,0.06,0.2,0.1C24.3,92.68,24.41,92.77,24.5,92.87L24.5,92.87z M24.19,96.67
		c0.04,0.1,0.06,0.2,0.08,0.31c0.01,0.07,0.01,0.15,0.02,0.22l0.19,0.24l-0.03,0.09c0.91,0.99,1.86,1.95,2.81,2.89
		c1.15,1.14,2.56,2.12,3.91,3.03c0.68,0.41,1.34,0.88,1.99,1.34c0.65,0.46,1.33,0.87,1.99,1.31c1.33,0.88,2.64,1.8,3.99,2.65
		c0.68,0.43,1.35,0.89,2.02,1.35c1.32,0.91,2.68,1.75,4,2.65c0.33,0.23,0.68,0.43,1.01,0.66c0.2,0.14,0.39,0.18,0.58,0.37
		c0.05,0.05,0.1,0.11,0.14,0.17c0.03,0.02,0.06,0.04,0.08,0.05l0.05,0.03l0.05,0.04c0.48,0.36,1.03,0.66,1.53,1.01l0.29,0.18l0.08,0
		l3.36,2.25c1.21,0.83,2.43,1.64,3.66,2.44c0.77,0.5,1.57,0.85,2.48,0.98c-0.06-0.12-0.12-0.22-0.17-0.28
		c-0.16-0.24-0.7-0.96-0.94-1.11l-0.24-0.12l-0.07-0.2c-0.13-0.15-0.47-0.38-0.61-0.49c-0.21-0.15-0.39-0.29-0.58-0.47
		c-0.22-0.05-0.36-0.12-0.55-0.28c-0.08-0.07-0.14-0.13-0.21-0.2c-0.03-0.01-0.06-0.02-0.09-0.03c-0.19-0.07-0.34-0.18-0.49-0.32
		c-0.04-0.04-0.08-0.08-0.12-0.12c-0.16-0.04-0.28-0.12-0.42-0.23c-0.09-0.08-0.18-0.16-0.27-0.24c0,0-0.01-0.01-0.01-0.01
		c-0.26-0.09-0.4-0.18-0.61-0.38c-0.02-0.02-0.05-0.05-0.08-0.08c-0.11-0.04-0.2-0.08-0.31-0.14c-0.13-0.07-0.24-0.17-0.35-0.27
		c-0.02-0.02-0.05-0.06-0.08-0.08c-0.19-0.04-0.37-0.12-0.52-0.26c-0.08-0.07-0.14-0.15-0.21-0.23c-0.18-0.06-0.31-0.11-0.49-0.23
		c-1.05-0.7-2.1-1.38-3.13-2.12c-0.06-0.04-0.11-0.08-0.17-0.12l-0.21,0.11l-0.37-0.42c-0.11-0.12-0.32-0.27-0.45-0.37
		c-0.27-0.2-0.56-0.39-0.84-0.58c-0.47-0.31-0.94-0.61-1.41-0.92c-0.96-0.64-1.91-1.29-2.87-1.92c-0.95-0.63-1.9-1.25-2.85-1.88
		c-0.97-0.64-1.92-1.3-2.9-1.92c-0.5-0.31-0.99-0.65-1.47-0.99c-0.45-0.32-0.92-0.6-1.39-0.9L33,103.13l-2.92-1.99l-0.02-0.02
		c-0.4-0.33-0.82-0.65-1.22-0.98c-0.45-0.37-0.86-0.76-1.26-1.18l-2.17-2.29l-0.01-0.03c-0.04-0.04-0.09-0.07-0.14-0.1
		c-0.14-0.09-0.29-0.15-0.42-0.24c-0.03-0.02-0.06-0.05-0.09-0.08c-0.07,0.1-0.16,0.19-0.26,0.27C24.4,96.57,24.3,96.63,24.19,96.67
		L24.19,96.67z M30.47,89.37l0.03,0.01c0.02-0.02,0.04-0.03,0.06-0.05C30.54,89.34,30.51,89.36,30.47,89.37L30.47,89.37z
		 M30.71,104.07c0.63,0.38,1.34,0.88,1.96,1.32c0.64,0.45,1.34,0.88,2.01,1.32c1.33,0.88,2.65,1.81,4,2.66
		c0.68,0.43,1.33,0.88,2,1.34c1.26,0.86,2.71,1.78,4,2.66c0.33,0.23,0.69,0.44,1,0.66c0.14,0.09,0.4,0.21,0.48,0.29
		c0.08,0.09,0.02,0.07,0.15,0.19c0.07,0.06,0.16,0.13,0.25,0.17c0.39,0.29,1.04,0.66,1.56,1.04l0.44,0.28
		c0.1,0.04,0.05,0.02,0.1,0.02l3.18,2.13c1.19,0.82,2.46,1.66,3.67,2.45c0.94,0.62,1.92,1.01,3.02,1.12l0.45,0.03
		c0.07,0.03,0.41,0.03,0.5-0.01c-0.05-0.31-0.44-1.11-0.67-1.45c-0.2-0.3-0.86-1.17-1.19-1.35c-0.08-0.21-0.62-0.59-0.84-0.75
		c-0.23-0.17-0.34-0.25-0.53-0.44c-0.23-0.22-0.29-0.06-0.54-0.28c-0.29-0.25-0.13-0.22-0.52-0.36c-0.23-0.09-0.37-0.34-0.54-0.42
		c-0.13-0.06-0.12,0-0.29-0.13c-0.08-0.06-0.17-0.16-0.26-0.23c-0.27-0.23-0.27-0.05-0.58-0.36c-0.33-0.32-0.26-0.17-0.54-0.33
		c-0.25-0.14-0.31-0.37-0.58-0.42c-0.3-0.06-0.25-0.14-0.48-0.35c-0.17-0.16-0.26-0.08-0.55-0.27c-1.09-0.72-2.04-1.34-3.11-2.1
		c-0.1-0.07-0.21-0.15-0.31-0.22c-0.26-0.18-0.23-0.15-0.32-0.1c-0.4-0.45-2.23-1.58-2.84-1.99c-0.95-0.64-1.91-1.29-2.87-1.92
		c-0.94-0.62-1.9-1.25-2.85-1.88c-0.98-0.65-1.93-1.31-2.91-1.93c-0.45-0.28-1.01-0.66-1.43-0.96c-0.45-0.32-0.95-0.62-1.42-0.92
		l-2.88-1.96c-1-0.82-1.49-1.15-2.42-2.11l-2.07-2.18c0-0.01-0.01-0.02-0.02-0.03c-0.06-0.09,0.13,0.07-0.15-0.15
		c-0.07-0.05-0.14-0.11-0.22-0.16c-0.53-0.34-0.32,0-0.78-0.87c-0.14-0.26-0.12-1.07,0-1.46c0.16-0.04,0.27,0.12,0.44-0.04
		c-0.04-0.21-0.24-0.29-0.09-0.53c0.15-0.23,0.31-0.06,0.49-0.11c0.05-0.21-0.19-0.31,0.01-0.53c0.18-0.19,0.28-0.02,0.51-0.02
		c0.1-0.2-0.11-0.29,0.12-0.51c0.19-0.18,0.3,0,0.5,0.07c0.16-0.22-0.1-0.27,0.23-0.5c0.21-0.06,0.22,0.04,0.46,0.17
		c0.15-0.2,0-0.27,0.24-0.45c0.26-0.11,0.27,0.08,0.5,0.07c0.03-0.09,0.01-0.14-0.02-0.2c0.2-0.31,0.2-0.2,0.44-0.07
		c0.71-0.46,0.78-0.68,1.07-0.39l0.64-0.46c0.33,0.13-0.03,0.22,0.8-0.36l0.2,0.11c0.61-0.63,0.57-0.43,0.79-0.4l0.57-0.5l0.2,0.1
		l0.56-0.53l0.2,0.08c0.09-0.07,0.21-0.16,0.3-0.24c0.34-0.31,0.21-0.16,0.29-0.16c0.12,0-0.06,0.15,0.32-0.19
		c0.04-0.04,0.1-0.08,0.14-0.09l0.57-0.36l0.19,0.07c0.45-0.55,0.17-0.13,0.62-0.34c0.23-0.11,0.42-0.14,0.61-0.27
		c-0.29-0.13-1.07-0.31-1.36-0.32c-0.48-0.03-0.75,0.09-1.21,0.31c-1.08,0.52-2.42,1.09-3.53,1.52c-0.7,0.26-1.69,0.58-2.4,0.74
		c-0.24,0.05-1.08,0.21-1.23,0.3c-0.05-0.01,0-0.02-0.09,0l-0.28,0.07c-0.29,0.06-0.82,0.27-1.05,0.48
		c-0.39,0.08-2.95,2.67-3.41,3.16c-0.56,0.61-1.16,1.28-1.66,1.95c-0.53,0.7-1.1,1.37-1.62,2.07c-0.11,0.14-0.54,0.73-0.52,0.84
		c0.04,0.23,1.84,1.2,1.99,1.27c0.21-0.18,0.34-0.46,0.28-0.54c-0.01-0.01,0-0.02-0.01-0.03c0.09-0.15-0.06-0.68-0.06-0.92
		c0-0.26,0.1-0.65,0.23-0.93c0.21-0.35,0.48-0.62,0.8-0.82c0.6-0.37,1.43,0.09,1.78,0.58c0.24,0.33,0.05,0.59,0.25,0.84
		c-0.02,0.06-0.02,0.03-0.03,0.12c0.99,1.1,2.04,2.17,3.12,3.22C27.82,102.07,29.3,103.13,30.71,104.07z"/>
	<path class="st0" d="M94.05,118.24c0.08,0.02,0.16,0.05,0.24,0.08c-0.31,0.17-0.63,0.33-0.95,0.49c-0.43-0.08-0.87-0.13-1.26-0.19
		c0.68-0.74,1.43-0.68,2.16-1.45l-2.71-0.83c0.55-0.45,0.95-0.26,1.4-0.74c-0.85-0.41-0.76-0.14-1.51-0.39
		c-1.11-0.37-0.33-0.21-1.13-0.87l1.65-0.68c-0.23-0.38-0.71-0.6-1.24-0.74c0.25-0.17,0.5-0.34,0.76-0.51
		c0.45,0.19,0.85,0.46,1.1,0.88l0.44,0.72l-1.29,0.53c0.16,0.05,0.27,0.07,0.45,0.08c0.41,0.03,0.72,0.15,1.09,0.33l0.88,0.43
		l-0.67,0.71c-0.02,0.02-0.04,0.04-0.06,0.06l2.17,0.66l-0.8,0.85C94.53,117.92,94.3,118.09,94.05,118.24L94.05,118.24z
		 M88.98,111.4c0.46-0.3,0.93-0.6,1.4-0.91l-0.48-0.39c-0.04-0.03-0.08-0.06-0.12-0.09l-3.72-5.7l-0.41,4.44l0,0.03
		c0,0.09,0,0.17,0,0.26c-0.01,0.06-0.02,0.12-0.03,0.19c-0.01,0.05-0.02,0.1-0.03,0.15c-0.03,0.15-0.05,0.29-0.08,0.44
		c0,0.03-0.01,0.07-0.02,0.11c-0.1,0.07-0.29,0.15-0.37,0.19l-0.9,0.42l1.01,1.08c-0.21,0.19-0.56,0.32-0.78,0.43l-1.31,0.62
		l1.29,0.67c0,0,0.01,0,0.01,0c-0.28,0.25-0.53,0.55-0.74,0.9l-0.4,0.69l0.12,0.06l1.14-0.74c0.49-0.61,1.2-0.99,1.86-1.39
		c-0.79-0.19-0.99,0.19-1.66-0.16c0.52-0.25,0.92-0.4,1.19-0.82c0.43-0.66,0.24-0.11,0.03-0.52l-0.55-0.59
		c0.88-0.41,0.7-0.45,0.86-1.24c0.01-0.06,0.02-0.13,0.03-0.19c0.09-0.59,0.03,0.4,0.04-0.55l0.22-2.35l2.68,4.11
		c0.04,0.03,0.13,0.07,0.19,0.12l-0.67,0.64L88.98,111.4L88.98,111.4z M84.7,116.9l0.87,0.03c-0.48,0.55-0.41,0.45-1.15,0.92
		c-0.27,0.17-0.42,0.24-0.64,0.42c-0.34,0.28-0.17,0.11-0.35,0.38c0.84,0.44,0.43,0.13,1.25,0.24c0.5,0.07,0.18-0.01,0.61,0.11
		c0.45,0.12,0.28,0.08,0.57,0.24c-0.43,0.24-0.91,0.52-1.38,0.83c-1.06,0.7-0.74,0.37-0.87,1.25c0.96,0.12,1.69-0.33,2.45,0.03
		c-0.71,0.38-1.64,0.61-2.25,1.08c-0.38,0.1-0.77,0.21-1.16,0.3c0.07-0.14,0.15-0.28,0.24-0.4c0.1-0.13,0.2-0.24,0.31-0.34
		l-0.41-0.05l0.11-0.73c0.04-0.28,0.01-0.59,0.13-0.85c0.14-0.32,0.53-0.56,0.85-0.76c-0.27-0.04-0.53-0.18-0.78-0.31l-0.7-0.37
		l0.43-0.66c0.05-0.07,0.08-0.15,0.13-0.22l0.01-0.01C83.48,117.7,84.06,117.32,84.7,116.9L84.7,116.9z M91.91,112.12l0.08,0.04
		l-0.44,0.2L91.91,112.12z"/>
	<path class="st0" d="M111.99,93.42c-0.09-0.02-0.01,0.02-0.11-0.05c-0.08-0.05-0.3-0.35-0.64-0.14c-0.32,0.2-0.23,0.44-0.2,0.71
		c0.02,0.17,0.02,0.24,0,0.38c-0.04,0.32-0.03,0.72-0.25,1.05l-0.01,0.14c0,0.01,0.01,0.12,0.01,0.14c0.03,0.11,0.11,0.22,0.2,0.29
		c0.44,0.34,0.6-0.38,1.78-0.62C113.95,95.08,112.45,94.2,111.99,93.42L111.99,93.42z M110.47,92.87c-0.03-0.08-0.07-0.15-0.11-0.23
		c-0.09-0.13-0.2-0.24-0.33-0.32c-0.04-0.14-0.12-0.28-0.25-0.42c-0.13-0.13-0.27-0.23-0.44-0.28c-0.05-0.09-0.12-0.18-0.22-0.27
		c-0.16-0.15-0.35-0.25-0.56-0.27c-0.07-0.08-0.16-0.16-0.27-0.23l-0.09-0.06l-0.11-0.03c-0.11-0.03-0.22-0.05-0.33-0.05
		c-0.05-0.04-0.1-0.09-0.16-0.13l-0.06-0.04l-0.07-0.03c-0.12-0.05-0.23-0.08-0.33-0.09c-0.15-0.17-0.34-0.29-0.6-0.3
		c-0.08,0-0.14,0-0.2,0.01c-0.29-0.22-0.6-0.43-0.96-0.4c-0.04,0-0.07,0.01-0.11,0.01l-0.29-0.21c0.52,0.17,1.06,0.32,1.57,0.44
		c0.2,0.04,0.4,0.08,0.6,0.13c0.13,0.03,0.31,0.06,0.44,0.11l0.23,0.15L108,90.3l0.16,0.04l0.01,0c0.17,0.03,0.58,0.19,0.7,0.3
		l0.15,0.14l0.12,0.03c0.17,0.1,0.4,0.32,0.53,0.44c0.34,0.3,0.67,0.61,0.99,0.93c0.11,0.11,0.23,0.22,0.34,0.33
		c-0.07,0.03-0.14,0.06-0.2,0.1C110.67,92.68,110.56,92.77,110.47,92.87L110.47,92.87z M110.78,96.67c-0.04,0.1-0.06,0.2-0.08,0.31
		c-0.01,0.07-0.01,0.15-0.02,0.22l-0.19,0.24l0.03,0.09c-0.91,0.99-1.86,1.95-2.81,2.89c-1.15,1.14-2.56,2.12-3.91,3.03
		c-0.68,0.41-1.34,0.88-1.99,1.34c-0.65,0.46-1.33,0.87-1.99,1.31c-1.33,0.88-2.64,1.8-3.99,2.65c-0.68,0.43-1.35,0.89-2.02,1.35
		c-1.32,0.91-2.67,1.75-4,2.65c-0.33,0.23-0.68,0.43-1.01,0.66c-0.2,0.14-0.39,0.18-0.58,0.37c-0.05,0.05-0.1,0.11-0.14,0.17
		c-0.03,0.02-0.06,0.04-0.08,0.05l-0.05,0.03l-0.05,0.04c-0.48,0.36-1.03,0.66-1.53,1.01l-0.29,0.18l-0.08,0l-3.36,2.25
		c-1.21,0.83-2.43,1.64-3.66,2.44c-0.77,0.5-1.57,0.85-2.48,0.98c0.06-0.12,0.12-0.22,0.17-0.28c0.16-0.24,0.7-0.96,0.94-1.11
		l0.24-0.12l0.07-0.2c0.13-0.15,0.47-0.38,0.61-0.49c0.21-0.15,0.39-0.29,0.58-0.47c0.22-0.05,0.36-0.12,0.55-0.28
		c0.08-0.07,0.14-0.13,0.21-0.2c0.03-0.01,0.06-0.02,0.09-0.03c0.19-0.07,0.34-0.18,0.49-0.32c0.04-0.04,0.08-0.08,0.12-0.12
		c0.16-0.04,0.28-0.12,0.42-0.23c0.09-0.08,0.18-0.16,0.27-0.24c0,0,0.01-0.01,0.01-0.01c0.26-0.09,0.4-0.18,0.61-0.38
		c0.02-0.02,0.05-0.05,0.08-0.08c0.11-0.04,0.2-0.08,0.31-0.14c0.13-0.07,0.24-0.17,0.35-0.27c0.02-0.02,0.05-0.06,0.08-0.08
		c0.19-0.04,0.37-0.12,0.52-0.26c0.08-0.07,0.14-0.15,0.21-0.23c0.18-0.06,0.31-0.11,0.49-0.23c1.05-0.7,2.1-1.38,3.13-2.12
		c0.06-0.04,0.11-0.08,0.17-0.12l0.21,0.11l0.37-0.42c0.11-0.12,0.32-0.27,0.45-0.37c0.27-0.2,0.56-0.39,0.84-0.58
		c0.47-0.31,0.94-0.61,1.41-0.92c0.96-0.64,1.91-1.29,2.87-1.92c0.95-0.63,1.9-1.25,2.85-1.88c0.97-0.64,1.92-1.3,2.9-1.92
		c0.5-0.31,0.99-0.65,1.47-0.99c0.45-0.32,0.92-0.6,1.39-0.9l0.01-0.01l2.92-1.99l0.02-0.02c0.4-0.33,0.82-0.65,1.22-0.98
		c0.45-0.37,0.86-0.76,1.26-1.18l2.17-2.29l0.01-0.03c0.04-0.04,0.09-0.07,0.14-0.1c0.14-0.09,0.29-0.15,0.42-0.24
		c0.03-0.02,0.06-0.05,0.09-0.08c0.07,0.1,0.16,0.19,0.26,0.27C110.58,96.57,110.68,96.63,110.78,96.67L110.78,96.67z M104.5,89.37
		l-0.03,0.01c-0.02-0.02-0.04-0.03-0.06-0.05C104.44,89.34,104.47,89.36,104.5,89.37L104.5,89.37z M104.27,104.07
		c-0.63,0.38-1.34,0.88-1.96,1.32c-0.64,0.45-1.34,0.88-2.01,1.32c-1.33,0.88-2.65,1.81-4,2.66c-0.68,0.43-1.33,0.88-2,1.34
		c-1.26,0.86-2.71,1.78-4,2.66c-0.33,0.23-0.69,0.44-1,0.66c-0.14,0.09-0.4,0.21-0.48,0.29c-0.08,0.09-0.02,0.07-0.15,0.19
		c-0.07,0.06-0.16,0.13-0.25,0.17c-0.39,0.29-1.04,0.66-1.56,1.04l-0.44,0.28c-0.1,0.04-0.05,0.02-0.1,0.02l-3.18,2.13
		c-1.19,0.82-2.46,1.66-3.67,2.45c-0.94,0.62-1.92,1.01-3.02,1.12l-0.45,0.03c-0.07,0.03-0.41,0.03-0.5-0.01
		c0.05-0.31,0.44-1.11,0.67-1.45c0.2-0.3,0.86-1.17,1.19-1.35c0.08-0.21,0.62-0.59,0.84-0.75c0.23-0.17,0.34-0.25,0.53-0.44
		c0.23-0.22,0.29-0.06,0.54-0.28c0.29-0.25,0.13-0.22,0.52-0.36c0.23-0.09,0.37-0.34,0.54-0.42c0.13-0.06,0.12,0,0.29-0.13
		c0.08-0.06,0.17-0.16,0.26-0.23c0.27-0.23,0.27-0.05,0.58-0.36c0.33-0.32,0.26-0.17,0.54-0.33c0.25-0.14,0.31-0.37,0.58-0.42
		c0.3-0.06,0.25-0.14,0.48-0.35c0.17-0.16,0.26-0.08,0.55-0.27c1.09-0.72,2.04-1.34,3.11-2.1c0.1-0.07,0.21-0.15,0.31-0.22
		c0.26-0.18,0.23-0.15,0.32-0.1c0.4-0.45,2.23-1.58,2.84-1.99c0.95-0.64,1.91-1.29,2.87-1.92c0.94-0.62,1.9-1.25,2.85-1.88
		c0.98-0.65,1.93-1.31,2.91-1.93c0.45-0.28,1.01-0.66,1.43-0.96c0.45-0.32,0.95-0.62,1.42-0.92l2.88-1.96
		c1-0.82,1.49-1.15,2.42-2.11l2.07-2.18c0-0.01,0.01-0.02,0.02-0.03c0.06-0.09-0.13,0.07,0.15-0.15c0.07-0.05,0.14-0.11,0.21-0.16
		c0.53-0.34,0.32,0,0.78-0.87c0.14-0.26,0.12-1.07,0-1.46c-0.16-0.04-0.27,0.12-0.44-0.04c0.04-0.21,0.24-0.29,0.09-0.53
		c-0.15-0.23-0.31-0.06-0.49-0.11c-0.05-0.21,0.19-0.31-0.01-0.53c-0.18-0.19-0.28-0.02-0.51-0.02c-0.1-0.2,0.11-0.29-0.12-0.51
		c-0.19-0.18-0.3,0-0.5,0.07c-0.16-0.22,0.1-0.27-0.23-0.5c-0.21-0.06-0.22,0.04-0.46,0.17c-0.15-0.2,0-0.27-0.24-0.45
		c-0.26-0.11-0.27,0.08-0.5,0.07c-0.03-0.09-0.01-0.14,0.02-0.2c-0.2-0.31-0.2-0.2-0.44-0.07c-0.71-0.46-0.78-0.68-1.07-0.39
		l-0.64-0.46c-0.33,0.13,0.03,0.22-0.8-0.36l-0.2,0.11c-0.61-0.63-0.57-0.43-0.79-0.4l-0.57-0.5l-0.2,0.1l-0.56-0.53l-0.2,0.08
		c-0.09-0.07-0.21-0.16-0.3-0.24c-0.34-0.31-0.21-0.16-0.29-0.16c-0.12,0,0.06,0.15-0.32-0.19c-0.04-0.04-0.1-0.08-0.14-0.09
		l-0.57-0.36l-0.19,0.07c-0.45-0.55-0.17-0.13-0.62-0.34c-0.23-0.11-0.42-0.14-0.61-0.27c0.29-0.13,1.07-0.31,1.36-0.32
		c0.48-0.03,0.75,0.09,1.21,0.31c1.08,0.52,2.42,1.09,3.53,1.52c0.7,0.26,1.69,0.58,2.4,0.74c0.24,0.05,1.08,0.21,1.23,0.3
		c0.05-0.01,0-0.02,0.09,0l0.28,0.07c0.29,0.06,0.82,0.27,1.05,0.48c0.39,0.08,2.95,2.67,3.41,3.16c0.56,0.61,1.16,1.28,1.66,1.95
		c0.53,0.7,1.1,1.37,1.62,2.07c0.11,0.14,0.54,0.73,0.52,0.84c-0.04,0.23-1.84,1.2-1.99,1.27c-0.21-0.18-0.34-0.46-0.28-0.54
		c0.01-0.01,0-0.02,0.01-0.03c-0.09-0.15,0.06-0.68,0.06-0.92c0-0.26-0.1-0.65-0.23-0.93c-0.21-0.35-0.48-0.62-0.8-0.82
		c-0.6-0.37-1.43,0.09-1.78,0.58c-0.24,0.33-0.05,0.59-0.25,0.84c0.02,0.06,0.02,0.03,0.03,0.12c-0.99,1.1-2.04,2.17-3.12,3.22
		C107.15,102.07,105.67,103.13,104.27,104.07z"/>
	<g>
		<path class="st2" d="M66.42,74.74c-0.28-0.1-0.18-0.13-0.27,0.12c-0.01,0.3,0.01,0.39,0.07,0.7c0.01,0.06,0.06,0.27,0.07,0.31
			c0.11,0.32,0.09,0.21,0.2,0.36C66.73,75.5,66.58,75.38,66.42,74.74z"/>
		<path class="st2" d="M76.51,102.84c-1.32-2.48-0.04-6.52-6.49-8.59c-1.66-0.3,0.51-0.87-0.23-4.11c-0.26-1.14,0.28-2.9,0.35-4.16
			c-0.82,0.18,0.18,0.25-0.65,0.38c-0.27-0.84-0.09-1.81-0.26-2.79c-0.21-1.22,0.22-0.74-0.58-2.6c-0.4-0.94-0.84-1.38-1.28-2.21
			c-0.43-0.82-0.52-1.81-0.87-2.53c-0.16,0.98-0.04,0.57-0.45,1.45c-0.31,0.67,0.22,0.8-0.19,1.6c-0.52,1.03-0.36,0.29-0.34,1.42
			c0.01,0.55-0.43,1.08-0.77,1.37c-1.44-0.12-1.21-0.71-1.58-1.39c-0.2-0.36-0.53-0.47-0.74-0.82c-0.19-0.34-0.27-0.7-0.39-1.02
			l-1.92-3.79c-0.01-0.48,0.15-0.51-0.29-0.74c-0.11,0.43-0.02,0.46,0.25,0.71c-0.11,0.64,0.29,0.97,0.02,1.65
			c-0.45,0.19,0.45,0.25-0.54,0.14l-0.02,0.03c0.09,0.54,0.11,0.45-0.14,1.11c-0.27,0.72,0.08,0.5,0.05,1.08
			c-0.04,0.82-0.75,0.21-0.37,2.12c-0.03,1.54-1.18,2.17-1.01,3.75c0.08,0.8,0.62,1.14,0.55,1.62c-0.11,0.79-0.75,0.79-0.14,1.77
			c0.33,0.53,0.82,0.74,1.04,1.33c0.5,1.36,0.4,1.4,1.65,2.9c0.4,0.48,1.19,0.87,1.64,1.17c-3.1,1.04-6,9.78-0.46,12.7
			c-0.01-0.01-0.03-0.01-0.04-0.02c-0.25,0.58-0.5,1.18-0.74,1.75c-0.19,0.44-0.39,0.91-0.59,1.37c-0.23,0.55-0.33,0.92-0.51,1.47
			c-0.12,0.36-0.49,0.66-0.55,0.91l-0.31,0.22c-0.06,0.06-0.12,0.13-0.2,0.21c-0.38,0.4-1.15,0.95-1.22,1.31
			c-0.05,0.61-0.16,1.22-0.27,1.82c-0.14,0.8-0.01,1,0.03,1.73c0.11,1.77-0.68,2.88-0.62,3.37c-0.13,0.11-0.17,0.12-0.17,0.12
			c0,0,0.04,0-0.04,0.19l-0.43,0.99l0.34,2.04c1.16,0.18,2.34,0.33,3.54,0.44c0.06-0.26,0.13-0.51,0.19-0.76
			c0.27-1.04,0.55-2.08,0.84-3.11c0.3-1.1,0.62-2.19,0.94-3.28c0.11-0.38,0.22-0.76,0.34-1.13c0.06-0.19,0.14-0.47,0.23-0.64
			l0.63-1.19l0.47,1.28c0.17,0.46,0.34,0.92,0.51,1.38l1.97-6.25l0.61,1.69c0.26,0.73,0.37,1.7,0.5,2.48l0.54,2.52
			c0.23-0.65,0.45-1.37,0.76-1.92l0.89-1.55l0.24,1.85c0.04,0.32,0.15,0.72,0.22,1.04c0.14,0.59,0.29,1.17,0.44,1.76
			c0.16,0.61,0.32,1.21,0.48,1.82c0.09,0.35,0.19,0.71,0.3,1.05l0.02,0.07l0.4,3.05c1.39-0.1,2.77-0.25,4.12-0.44
			c-0.08-0.7-0.11-1.42,0-2.19c0.01-0.27,0.04-0.13-0.1-0.16c-0.01-0.28-0.23-0.31-0.43-1.31c-0.08-0.39-0.13-1.03-0.26-1.35
			c-0.14-1.26-1.26-0.74-1.8-3.9c-0.04-0.23-0.05-0.4-0.22-0.6c0.04-0.32-0.91-2.5-1.15-2.81c-0.02-0.06-0.03-0.11-0.06-0.17
			c-0.14-0.24-0.04-0.08-0.15-0.18c0.02-0.25-0.56-1.24-0.72-1.59c-0.14-0.29-0.24-0.54-0.38-0.82c-0.15-0.29-0.34-0.46-0.54-0.73
			c-0.06-0.12,0.01-0.06-0.1-0.07c-0.01-0.02-0.02-0.04-0.03-0.06c-0.01,0-0.02,0-0.03,0c3.02-0.07,5.89-0.92,5.67-3.2l0.56-0.4
			c0.16-0.13,0.39-0.33,0.47-0.45C77.36,103.31,77.07,103.1,76.51,102.84z M66.65,81.51c0.3,0.07,0.95,1.27,0.95,2.38
			c0,0.73-0.2,2.63,0.02,3.73c0.15,0.77,0.69,0.73,0.8,1.38c0.07,0.42-0.24,1.18-0.19,1.53c0.2,1.46,0.86,1.29,0.59,2.07
			c-1.01-0.19-0.84-0.38-0.94-1.21c-0.03-0.23-0.1-0.22-0.28-0.86c-0.05-0.18,0.04-0.68-0.04-0.94c-0.23-0.7-0.69-0.84-0.94-1.8
			C66.17,86,66.24,83.13,66.65,81.51z M65.93,97.91c0.71-0.11,0.78,0.19,0.63,0.78C65.95,98.61,65.52,98.29,65.93,97.91z
			 M66.49,101.8c-0.5-0.07-0.85-0.33-0.51-0.64C66.56,101.08,66.61,101.32,66.49,101.8z M65.09,99.75c0.46-0.07,0.5,0.12,0.41,0.5
			C65.1,100.2,64.82,99.99,65.09,99.75z M61.86,91c-0.35-0.64,0.53-1.13,0.05-1.69c-1.73-2.02-1.31-3.53-1.14-5.79
			c-0.13-0.57-0.22-3.17,0.06-3.43c1.1,0.22,0.52,1.64,0.39,3.35c-0.07,0.83,0.3,2.81,0.61,3.49c0.29,0.65,0.04,0.88,0.44,1.37
			c0.57,0.7,0.57,0.63,1.21,1.24c0.91,0.87-0.87,0.67,0.75,2.14c0.21,0.19,0.47,0.54,0.54,0.62l-0.12,0.85
			c-1.49,0.13-0.74-0.46-1.39-1.04C62.74,91.64,62.35,91.89,61.86,91z M62.8,106.59c0,0-0.01,0-0.01-0.01
			C62.79,106.59,62.79,106.59,62.8,106.59z M67.52,102.32c0.71-0.11,0.78,0.19,0.63,0.78C67.54,103.03,67.11,102.71,67.52,102.32z
			 M70.39,103.74c-0.95-0.13-1.6-0.62-0.97-1.2C70.51,102.36,70.62,102.82,70.39,103.74z M67.58,101.84
			c-0.1-0.21-0.23-0.6-0.41-0.87c-0.3-0.44-0.55-0.38-0.68-0.86c-0.2-0.73,0.59-1.82,0.95-2.32c4.03-0.67,3.39,2.33,4.27,3.04
			c-0.04,0.02-0.08,0.06-0.1,0.08c-0.03,0.02-0.08,0.05-0.11,0.07c-0.03,0.02-0.11,0.09-0.12,0.07c-0.01-0.03-0.08,0.04-0.13,0.06
			C69.82,101.81,71.12,102.7,67.58,101.84z M71.74,102.96c-0.62-0.08-1.05-0.4-0.63-0.78C71.82,102.06,71.89,102.36,71.74,102.96z
			 M75.22,105.1c-0.38,0.19-0.32,0.2-0.81,0.13c-0.17-0.5-0.02-0.6-0.07-1.07c-0.08-0.62-0.3-0.17-0.42-0.89
			c0.88-0.23,0.87,0.23,1.06,0.42C75.03,104.6,75.35,104.35,75.22,105.1z"/>
	</g>
	<g>
		<path class="st3" d="M12.86,68.88v-8.93c0-0.37,0.3-0.66,0.67-0.66c0.37,0,0.67,0.3,0.67,0.66v8.74c0,1.26,0.42,1.84,1.23,1.84
			c0.81,0,1.23-0.58,1.23-1.84v-8.74c0-0.37,0.3-0.66,0.67-0.66c0.37,0,0.67,0.3,0.67,0.66v8.74c0,1.26,0.42,1.84,1.23,1.84
			s1.23-0.58,1.23-1.84v-8.74c0-0.37,0.3-0.66,0.67-0.66c0.37,0,0.67,0.3,0.67,0.66v8.93c0,1.77-0.91,2.87-2.56,2.87
			c-0.79,0-1.45-0.35-1.89-0.95c-0.44,0.6-1.1,0.95-1.89,0.95C13.77,71.75,12.86,70.65,12.86,68.88z"/>
		<path class="st3" d="M28.92,64.57v6.39c0,0.35-0.3,0.65-0.65,0.65c-0.35,0-0.65-0.3-0.65-0.65v-6.18c0-1.21-0.39-1.75-1.19-1.75
			c-0.81,0-1.19,0.54-1.19,1.75v6.18c0,0.35-0.3,0.65-0.65,0.65c-0.35,0-0.65-0.3-0.65-0.65V59.3c0-0.35,0.3-0.65,0.65-0.65
			c0.35,0,0.65,0.3,0.65,0.65v2.92c0.37-0.24,0.82-0.4,1.26-0.4C28.01,61.82,28.92,62.82,28.92,64.57z"/>
		<path class="st3" d="M30.83,60c0-0.42,0.33-0.75,0.75-0.75c0.42,0,0.75,0.33,0.75,0.75c0,0.42-0.33,0.75-0.75,0.75
			C31.16,60.75,30.83,60.42,30.83,60z M30.93,70.96v-8.33c0-0.35,0.3-0.65,0.65-0.65c0.35,0,0.65,0.3,0.65,0.65v8.33
			c0,0.35-0.3,0.65-0.65,0.65C31.23,71.61,30.93,71.31,30.93,70.96z"/>
		<path class="st3" d="M39.09,69.37v0.23c0,1.23-0.81,2.12-2.07,2.12c-1.38,0-2.22-0.88-2.22-2.42v-6.06h-0.91
			c-0.33,0-0.61-0.28-0.61-0.61c0-0.33,0.28-0.61,0.61-0.61h0.91v-2.26c0-0.35,0.3-0.65,0.65-0.65c0.35,0,0.65,0.3,0.65,0.65v2.26
			h1.28c0.33,0,0.61,0.28,0.61,0.61c0,0.33-0.28,0.61-0.61,0.61H36.1v5.85c0,1,0.38,1.42,0.98,1.42c0.51,0,0.81-0.44,0.81-1.12
			v-0.03c0-0.4,0.25-0.67,0.61-0.67C38.88,68.69,39.09,68.97,39.09,69.37z"/>
		<path class="st3" d="M41.42,68v0.77c0,1.21,0.38,1.75,1.23,1.75c0.81,0,1.14-0.53,1.14-1.21v-0.03c0-0.4,0.25-0.67,0.61-0.67
			c0.39,0,0.61,0.26,0.61,0.67v0.16c0,1.31-0.79,2.29-2.36,2.29c-1.61,0-2.52-1-2.52-2.75v-4.38c0-1.75,0.91-2.75,2.49-2.75
			c1.58,0,2.45,1,2.45,2.75v2.33c0,0.74-0.32,1.07-1.07,1.07H41.42z M41.42,64.82v1.94h2.38v-1.94c0-1.21-0.39-1.75-1.19-1.75
			S41.42,63.61,41.42,64.82z"/>
		<path class="st3" d="M53.68,66.09c0.49,0.28,1,1,1,2.03v2.85c0,0.37-0.3,0.67-0.67,0.67s-0.67-0.3-0.67-0.67v-2.49
			c0-1-0.53-1.77-1.38-1.77h-0.93v4.25c0,0.37-0.3,0.67-0.67,0.67c-0.37,0-0.67-0.3-0.67-0.67V60.4c0-0.74,0.32-1.05,1.07-1.05h1.17
			c1.75,0,2.77,1.16,2.77,3.27v0.82C54.71,64.66,54.39,65.55,53.68,66.09z M53.41,63.17v-0.26c0-1.58-0.47-2.33-1.59-2.33h-0.79
			v4.92h0.79C52.94,65.5,53.41,64.75,53.41,63.17z"/>
		<path class="st3" d="M61.43,64.61v6.36c0,0.35-0.3,0.65-0.65,0.65c-0.3,0-0.51-0.18-0.61-0.44c-0.35,0.39-0.74,0.58-1.4,0.58
			c-1.38,0-2.21-0.86-2.21-2.61v-1.47c0-1.75,0.82-2.61,2.21-2.61c0.65,0,1.03,0.18,1.37,0.54v-0.79c0-1.21-0.39-1.75-1.19-1.75
			c-0.81,0-1.1,0.44-1.1,1.12v0.02c0,0.33-0.19,0.6-0.61,0.6c-0.33,0-0.6-0.28-0.6-0.65v-0.18c0-1.23,0.74-2.12,2.31-2.12
			C60.52,61.86,61.43,62.86,61.43,64.61z M60.14,68.79v-0.77c0-1.14-0.56-1.75-1.23-1.75c-0.75,0-1.05,0.46-1.05,1.66v0.95
			c0,1.21,0.3,1.66,1.05,1.66C59.58,70.54,60.14,69.93,60.14,68.79z"/>
		<path class="st3" d="M68.4,64.57V69c0,1.75-0.91,2.75-2.52,2.75c-1.61,0-2.52-1-2.52-2.75v-9.7c0-0.35,0.3-0.65,0.65-0.65
			c0.35,0,0.65,0.3,0.65,0.65v2.87c0.35-0.21,0.79-0.35,1.23-0.35C67.49,61.82,68.4,62.82,68.4,64.57z M67.1,64.78
			c0-1.21-0.39-1.75-1.23-1.75c-0.66,0-1.23,0.61-1.23,1.75v4.01c0,1.21,0.38,1.75,1.23,1.75c0.84,0,1.23-0.54,1.23-1.75V64.78z"/>
		<path class="st3" d="M75.32,64.57V69c0,1.75-0.91,2.75-2.52,2.75s-2.52-1-2.52-2.75v-9.7c0-0.35,0.3-0.65,0.65-0.65
			s0.65,0.3,0.65,0.65v2.87c0.35-0.21,0.79-0.35,1.23-0.35C74.41,61.82,75.32,62.82,75.32,64.57z M74.02,64.78
			c0-1.21-0.39-1.75-1.23-1.75c-0.67,0-1.23,0.61-1.23,1.75v4.01c0,1.21,0.39,1.75,1.23,1.75s1.23-0.54,1.23-1.75V64.78z"/>
		<path class="st3" d="M77.17,60c0-0.42,0.33-0.75,0.75-0.75c0.42,0,0.75,0.33,0.75,0.75c0,0.42-0.33,0.75-0.75,0.75
			C77.51,60.75,77.17,60.42,77.17,60z M77.28,70.96v-8.33c0-0.35,0.3-0.65,0.65-0.65s0.65,0.3,0.65,0.65v8.33
			c0,0.35-0.3,0.65-0.65,0.65S77.28,71.31,77.28,70.96z"/>
		<path class="st3" d="M85.44,69.37v0.23c0,1.23-0.81,2.12-2.07,2.12c-1.38,0-2.22-0.88-2.22-2.42v-6.06h-0.91
			c-0.33,0-0.61-0.28-0.61-0.61c0-0.33,0.28-0.61,0.61-0.61h0.91v-2.26c0-0.35,0.3-0.65,0.65-0.65s0.65,0.3,0.65,0.65v2.26h1.28
			c0.33,0,0.61,0.28,0.61,0.61c0,0.33-0.28,0.61-0.61,0.61h-1.28v5.85c0,1,0.39,1.42,0.98,1.42c0.51,0,0.81-0.44,0.81-1.12v-0.03
			c0-0.4,0.24-0.67,0.61-0.67C85.23,68.69,85.44,68.97,85.44,69.37z"/>
		<path class="st3" d="M90.58,70.98v-10.4h-1.51c-0.35,0-0.65-0.26-0.65-0.61c0-0.35,0.3-0.61,0.65-0.61h4.34
			c0.35,0,0.65,0.26,0.65,0.61c0,0.35-0.3,0.61-0.65,0.61h-1.51v10.4c0,0.37-0.3,0.67-0.67,0.67S90.58,71.35,90.58,70.98z"/>
		<path class="st3" d="M94.79,70.96v-6.43c0-1.75,0.86-2.71,2.36-2.71c1.49,0,2.28,0.91,2.28,2.77v0.42c0,0.4-0.28,0.67-0.63,0.67
			c-0.33,0-0.63-0.26-0.63-0.67v-0.26c0-1.16-0.25-1.72-0.96-1.72c-0.74,0-1.12,0.51-1.12,1.72v6.22c0,0.35-0.3,0.65-0.65,0.65
			S94.79,71.31,94.79,70.96z"/>
		<path class="st3" d="M105.57,64.61v6.36c0,0.35-0.3,0.65-0.65,0.65c-0.3,0-0.51-0.18-0.61-0.44c-0.35,0.39-0.74,0.58-1.4,0.58
			c-1.38,0-2.21-0.86-2.21-2.61v-1.47c0-1.75,0.82-2.61,2.21-2.61c0.65,0,1.03,0.18,1.37,0.54v-0.79c0-1.21-0.39-1.75-1.19-1.75
			c-0.81,0-1.1,0.44-1.1,1.12v0.02c0,0.33-0.19,0.6-0.61,0.6c-0.33,0-0.59-0.28-0.59-0.65v-0.18c0-1.23,0.74-2.12,2.31-2.12
			S105.57,62.86,105.57,64.61z M104.28,68.79v-0.77c0-1.14-0.56-1.75-1.23-1.75c-0.75,0-1.05,0.46-1.05,1.66v0.95
			c0,1.21,0.3,1.66,1.05,1.66C103.72,70.54,104.28,69.93,104.28,68.79z"/>
		<path class="st3" d="M107.44,68.77v-6.14c0-0.35,0.3-0.65,0.65-0.65s0.65,0.3,0.65,0.65v6.04c0,0.96,0.61,1.73,1.02,1.73
			c0.25,0,0.51-0.32,0.75-0.77c0.32-0.6,0.54-1.45,0.54-2.21v-2.15c0-0.86-0.19-1.58-1-2.26c-0.28-0.23-0.35-0.65-0.14-0.91
			c0.24-0.31,0.68-0.26,0.94-0.05c1.24,1.05,1.49,1.84,1.49,3.54v1.72c0,1.16-0.37,2.42-0.96,3.31c-0.44,0.67-1.02,1.14-1.65,1.14
			C108.67,71.75,107.44,70.26,107.44,68.77z"/>
		<path class="st3" d="M115.34,68v0.77c0,1.21,0.39,1.75,1.23,1.75c0.81,0,1.14-0.53,1.14-1.21v-0.03c0-0.4,0.25-0.67,0.61-0.67
			c0.39,0,0.61,0.26,0.61,0.67v0.16c0,1.31-0.79,2.29-2.36,2.29c-1.61,0-2.52-1-2.52-2.75v-4.38c0-1.75,0.91-2.75,2.49-2.75
			s2.45,1,2.45,2.75v2.33c0,0.74-0.32,1.07-1.07,1.07H115.34z M115.34,64.82v1.94h2.38v-1.94c0-1.21-0.39-1.75-1.19-1.75
			S115.34,63.61,115.34,64.82z"/>
		<path class="st3" d="M120.89,70.96V59.3c0-0.35,0.3-0.65,0.65-0.65c0.35,0,0.65,0.3,0.65,0.65v11.66c0,0.35-0.3,0.65-0.65,0.65
			C121.19,71.61,120.89,71.31,120.89,70.96z"/>
	</g>
	<g>
		<path class="st4" d="M67.33,134.66C30.2,134.66,0,104.45,0,67.33S30.2,0,67.33,0s67.33,30.2,67.33,67.33
			S104.45,134.66,67.33,134.66z M67.33,2.57c-35.71,0-64.75,29.05-64.75,64.75c0,35.71,29.05,64.75,64.75,64.75
			c35.71,0,64.75-29.05,64.75-64.75C132.08,31.62,103.03,2.57,67.33,2.57z"/>
	</g>
	<g>
		<path class="st1" d="M67.33,128.07c-33.49,0-60.74-27.25-60.74-60.74S33.84,6.59,67.33,6.59c33.49,0,60.74,27.25,60.74,60.74
			S100.82,128.07,67.33,128.07z M67.33,9.16c-32.07,0-58.17,26.09-58.17,58.17s26.09,58.17,58.17,58.17s58.17-26.09,58.17-58.17
			S99.4,9.16,67.33,9.16z"/>
	</g>
</g>
</svg>
