<?xml version="1.0" encoding="utf-8"?>
<!-- Generator: Adobe Illustrator 23.0.1, SVG Export Plug-In . SVG Version: 6.00 Build 0)  -->
<svg version="1.1" id="Layer_1" xmlns="http://www.w3.org/2000/svg" xmlns:xlink="http://www.w3.org/1999/xlink" x="0px" y="0px"
	 viewBox="0 0 35.76 29.19" style="enable-background:new 0 0 35.76 29.19;" xml:space="preserve">
<style type="text/css">
	.st0{fill:#116533;}
</style>
<path class="st0" d="M21.67,3.24l3.27,3.24h7.24v19.46H3.58V6.49h7.24l3.27-3.24H21.67 M23.25,0H12.52L9.25,3.24H3.58
	C1.61,3.24,0,4.7,0,6.49v19.46c0,1.78,1.61,3.24,3.58,3.24h28.61c1.97,0,3.58-1.46,3.58-3.24V6.49c0-1.78-1.61-3.24-3.58-3.24h-5.67
	L23.25,0z M17.88,11.35c2.95,0,5.36,2.19,5.36,4.87s-2.41,4.87-5.36,4.87s-5.36-2.19-5.36-4.87S14.93,11.35,17.88,11.35 M17.88,8.11
	c-4.94,0-8.94,3.63-8.94,8.11s4.01,8.11,8.94,8.11s8.94-3.63,8.94-8.11S22.82,8.11,17.88,8.11z"/>
</svg>
